# xmcd CD database file
#
# Track frame offsets:
#	150
#	16328
#	43386
#	65715
#	86204
#	112158
#	144995
#	164977
#	190429
#	213807
#	229443
#	245996
#
# Disc length: 3561 seconds
#
# Revision: 0
# Processed by: cddbd v1.5.2PL0 Copyright (c) Steve Scherf et al.
# Submitted via: CDex 1.51
#
DISCID=c40de70c
DTITLE=Various Artist - Jazz Pop CD2
DYEAR=2006
DGENRE=Jazz
TTITLE0=Take 6 - Set U Free
TTITLE1=Rigmor Gustafsson - How Do You Keep The Music Playing
TTITLE2=French Acoustic - L'ame-soeur a l'hamecon
TTITLE3=Tok Tok Tok - I wish
TTITLE4=Maceo Parker - What A Wonderful world
TTITLE5=Bill Evans - Eyes Of A Child
TTITLE6=Hiram Bullock - Everything U Do
TTITLE7=Mezzoforte - Cruising
TTITLE8=Ron Spielman - Sweet Angel
TTITLE9=Heather Greene - Just What I Needed
TTITLE10=Paddy Milner - I Live The Life I Love
TTITLE11=Julia Huelsmann Trio with Anna Lauvergnac - Mama Told Me Not To Come
EXTD=YEAR: 2006
EXTT0=
EXTT1=
EXTT2=
EXTT3=
EXTT4=
EXTT5=
EXTT6=
EXTT7=
EXTT8=
EXTT9=
EXTT10=
EXTT11=
PLAYORDER=
